<svg xmlns="http://www.w3.org/2000/svg" xmlns:xlink="http://www.w3.org/1999/xlink" contentStyleType="text/css" data-diagram-type="STATE" height="825px" preserveAspectRatio="none" style="width:2364px;height:825px;background:#FFFFFF;" version="1.1" viewBox="0 0 2364 825" width="2364px" zoomAndPan="magnify"><?plantuml 1.2026.4beta2?><defs/><g><g class="title" data-source-line="6"><text fill="#000000" font-family="Verdana" font-size="14" font-weight="700" lengthAdjust="spacing" textLength="477.4014" x="942.4444" y="27.9951">&#1057;&#1093;&#1077;&#1084;&#1072; &#1085;&#1072;&#1074;&#1080;&#1075;&#1072;&#1094;&#1080;&#1080; &#1080;&#1085;&#1092;&#1086;&#1088;&#1084;&#1072;&#1094;&#1080;&#1086;&#1085;&#1085;&#1086;&#1081; &#1089;&#1080;&#1089;&#1090;&#1077;&#1084;&#1099; &#171;MindKeeper&#187;</text></g><path d="M1344.11,145.2969 L1548.2311,145.2969 A12.5,12.5 0 0 1 1560.7311,157.7969 L1560.7311,168.1016 L1331.61,168.1016 L1331.61,157.7969 A12.5,12.5 0 0 1 1344.11,145.2969" fill="#ECF0F1"/><path d="M1331.61,168.1016 L1560.7311,168.1016 L1560.7311,294.0156 A12.5,12.5 0 0 1 1548.2311,306.5156 L1344.11,306.5156 A12.5,12.5 0 0 1 1331.61,294.0156 L1331.61,168.1016" fill="#FFFFFF"/><rect fill="none" height="161.2188" rx="12.5" ry="12.5" style="stroke:#2C3E50;stroke-width:1;" width="229.1211" x="1331.61" y="145.2969"/><line style="stroke:#2C3E50;stroke-width:1;" x1="1331.61" x2="1560.7311" y1="168.1016" y2="168.1016"/><text fill="#2C3E50" font-family="'Times New Roman'" font-size="11" lengthAdjust="spacing" textLength="113.604" x="1389.3685" y="160.5073">&#1069;&#1082;&#1088;&#1072;&#1085; &#1072;&#1074;&#1090;&#1086;&#1088;&#1080;&#1079;&#1072;&#1094;&#1080;&#1080;</text><g class="entity" data-qualified-name="LoginScreen.LoginForm" id="ent0003"><rect fill="#ECF0F1" height="58.4141" rx="12.5" ry="12.5" style="stroke:#2C3E50;stroke-width:1;" width="193.1211" x="1343.61" y="235.1016"/><line style="stroke:#2C3E50;stroke-width:1;" x1="1343.61" x2="1536.7311" y1="257.9063" y2="257.9063"/><text fill="#2C3E50" font-family="'Times New Roman'" font-size="11" lengthAdjust="spacing" textLength="58.1636" x="1411.0888" y="250.312">LoginForm</text><text fill="#2C3E50" font-family="'Times New Roman'" font-size="11" lengthAdjust="spacing" textLength="127.6709" x="1348.61" y="273.1167">- &#1055;&#1086;&#1083;&#1103;: &#1051;&#1086;&#1075;&#1080;&#1085;, &#1055;&#1072;&#1088;&#1086;&#1083;&#1100;</text><text fill="#2C3E50" font-family="'Times New Roman'" font-size="11" lengthAdjust="spacing" textLength="173.1211" x="1348.61" y="285.9214">- &#1050;&#1085;&#1086;&#1087;&#1082;&#1080;: &#1042;&#1086;&#1081;&#1090;&#1080;, &#1056;&#1077;&#1075;&#1080;&#1089;&#1090;&#1088;&#1072;&#1094;&#1080;&#1103;</text></g><g class="start_entity" data-qualified-name="LoginScreen..start.LoginScreen" data-source-line="26" id="ent0004"><ellipse cx="1440.17" cy="189.1016" fill="#FFFFFF" rx="10" ry="10" style="stroke:#000000;stroke-width:1;"/></g><!--link *start*LoginScreen to LoginForm--><g class="link" data-entity-1="ent0004" data-entity-2="ent0003" data-link-type="dependency" data-source-line="26" id="lnk5"><path d="M1440.17,199.3716 C1440.17,208.2916 1440.17,216.2616 1440.17,228.8616" fill="none" id="*start*LoginScreen-to-LoginForm" style="stroke:#000000;stroke-width:1;"/><polygon fill="#000000" points="1440.17,234.8616,1444.17,225.8616,1440.17,229.8616,1436.17,225.8616,1440.17,234.8616" style="stroke:#000000;stroke-width:1;"/></g><path d="M1563.34,389.9169 L1856.9919,389.9169 A12.5,12.5 0 0 1 1869.4919,402.4169 L1869.4919,412.7216 L1550.84,412.7216 L1550.84,402.4169 A12.5,12.5 0 0 1 1563.34,389.9169" fill="#ECF0F1"/><path d="M1550.84,412.7216 L1869.4919,412.7216 L1869.4919,538.6356 A12.5,12.5 0 0 1 1856.9919,551.1356 L1563.34,551.1356 A12.5,12.5 0 0 1 1550.84,538.6356 L1550.84,412.7216" fill="#FFFFFF"/><rect fill="none" height="161.2188" rx="12.5" ry="12.5" style="stroke:#2C3E50;stroke-width:1;" width="318.6519" x="1550.84" y="389.9169"/><line style="stroke:#2C3E50;stroke-width:1;" x1="1550.84" x2="1869.4919" y1="412.7216" y2="412.7216"/><text fill="#2C3E50" font-family="'Times New Roman'" font-size="11" lengthAdjust="spacing" textLength="113.3784" x="1653.4767" y="405.1273">&#1069;&#1082;&#1088;&#1072;&#1085; &#1088;&#1077;&#1075;&#1080;&#1089;&#1090;&#1088;&#1072;&#1094;&#1080;&#1080;</text><g class="entity" data-qualified-name="RegisterScreen.RegisterForm" id="ent0005"><rect fill="#ECF0F1" height="58.4141" rx="12.5" ry="12.5" style="stroke:#2C3E50;stroke-width:1;" width="282.6519" x="1562.84" y="479.7216"/><line style="stroke:#2C3E50;stroke-width:1;" x1="1562.84" x2="1845.4919" y1="502.5263" y2="502.5263"/><text fill="#2C3E50" font-family="'Times New Roman'" font-size="11" lengthAdjust="spacing" textLength="74.0781" x="1667.1269" y="494.932">RegisterForm</text><text fill="#2C3E50" font-family="'Times New Roman'" font-size="11" lengthAdjust="spacing" textLength="262.6519" x="1567.84" y="517.7367">- &#1055;&#1086;&#1083;&#1103;: &#1051;&#1086;&#1075;&#1080;&#1085;, &#1055;&#1072;&#1088;&#1086;&#1083;&#1100;, &#1055;&#1086;&#1076;&#1090;&#1074;&#1077;&#1088;&#1078;&#1076;&#1077;&#1085;&#1080;&#1077;, &#1060;&#1048;&#1054;</text><text fill="#2C3E50" font-family="'Times New Roman'" font-size="11" lengthAdjust="spacing" textLength="227.9922" x="1567.84" y="530.5414">- &#1050;&#1085;&#1086;&#1087;&#1082;&#1080;: &#1047;&#1072;&#1088;&#1077;&#1075;&#1080;&#1089;&#1090;&#1088;&#1080;&#1088;&#1086;&#1074;&#1072;&#1090;&#1100;&#1089;&#1103;, &#1054;&#1090;&#1084;&#1077;&#1085;&#1072;</text></g><g class="start_entity" data-qualified-name="RegisterScreen..start.RegisterScreen" data-source-line="32" id="ent0006"><ellipse cx="1704.17" cy="433.7216" fill="#FFFFFF" rx="10" ry="10" style="stroke:#000000;stroke-width:1;"/></g><!--link *start*RegisterScreen to RegisterForm--><g class="link" data-entity-1="ent0006" data-entity-2="ent0005" data-link-type="dependency" data-source-line="32" id="lnk7"><path d="M1704.17,443.9916 C1704.17,452.9116 1704.17,460.8816 1704.17,473.4816" fill="none" id="*start*RegisterScreen-to-RegisterForm" style="stroke:#000000;stroke-width:1;"/><polygon fill="#000000" points="1704.17,479.4816,1708.17,470.4816,1704.17,474.4816,1700.17,470.4816,1704.17,479.4816" style="stroke:#000000;stroke-width:1;"/></g><path d="M1067.51,383.5169 L1268.8381,383.5169 A12.5,12.5 0 0 1 1281.3381,396.0169 L1281.3381,406.3216 L1055.01,406.3216 L1055.01,396.0169 A12.5,12.5 0 0 1 1067.51,383.5169" fill="#ECF0F1"/><path d="M1055.01,406.3216 L1281.3381,406.3216 L1281.3381,545.0403 A12.5,12.5 0 0 1 1268.8381,557.5403 L1067.51,557.5403 A12.5,12.5 0 0 1 1055.01,545.0403 L1055.01,406.3216" fill="#FFFFFF"/><rect fill="none" height="174.0234" rx="12.5" ry="12.5" style="stroke:#2C3E50;stroke-width:1;" width="226.3281" x="1055.01" y="383.5169"/><line style="stroke:#2C3E50;stroke-width:1;" x1="1055.01" x2="1281.3381" y1="406.3216" y2="406.3216"/><text fill="#2C3E50" font-family="'Times New Roman'" font-size="11" lengthAdjust="spacing" textLength="78.4448" x="1128.9517" y="398.7273">&#1043;&#1083;&#1072;&#1074;&#1085;&#1086;&#1077; &#1086;&#1082;&#1085;&#1086;</text><g class="entity" data-qualified-name="MainWindow.MainFrame" id="ent0007"><rect fill="#ECF0F1" height="71.2188" rx="12.5" ry="12.5" style="stroke:#2C3E50;stroke-width:1;" width="190.3281" x="1067.01" y="473.3216"/><line style="stroke:#2C3E50;stroke-width:1;" x1="1067.01" x2="1257.3381" y1="496.1263" y2="496.1263"/><text fill="#2C3E50" font-family="'Times New Roman'" font-size="11" lengthAdjust="spacing" textLength="61.3325" x="1131.5078" y="488.532">MainFrame</text><text fill="#2C3E50" font-family="'Times New Roman'" font-size="11" lengthAdjust="spacing" textLength="147.313" x="1072.01" y="511.3367">- &#1042;&#1077;&#1088;&#1093;&#1085;&#1103;&#1103; &#1087;&#1072;&#1085;&#1077;&#1083;&#1100; (&#1093;&#1077;&#1076;&#1077;&#1088;)</text><text fill="#2C3E50" font-family="'Times New Roman'" font-size="11" lengthAdjust="spacing" textLength="170.3281" x="1072.01" y="524.1414">- &#1051;&#1077;&#1074;&#1086;&#1077; &#1085;&#1072;&#1074;&#1080;&#1075;&#1072;&#1094;&#1080;&#1086;&#1085;&#1085;&#1086;&#1077; &#1084;&#1077;&#1085;&#1102;</text><text fill="#2C3E50" font-family="'Times New Roman'" font-size="11" lengthAdjust="spacing" textLength="128.7344" x="1072.01" y="536.9461">- &#1062;&#1077;&#1085;&#1090;&#1088;&#1072;&#1083;&#1100;&#1085;&#1099;&#1081; &#1092;&#1088;&#1077;&#1081;&#1084;</text></g><g class="start_entity" data-qualified-name="MainWindow..start.MainWindow" data-source-line="38" id="ent0008"><ellipse cx="1162.17" cy="427.3216" fill="#FFFFFF" rx="10" ry="10" style="stroke:#000000;stroke-width:1;"/></g><!--link *start*MainWindow to MainFrame--><g class="link" data-entity-1="ent0008" data-entity-2="ent0007" data-link-type="dependency" data-source-line="38" id="lnk9"><path d="M1162.17,437.7716 C1162.17,446.5016 1162.17,454.0316 1162.17,466.8916" fill="none" id="*start*MainWindow-to-MainFrame" style="stroke:#000000;stroke-width:1;"/><polygon fill="#000000" points="1162.17,472.8916,1166.17,463.8916,1162.17,467.8916,1158.17,463.8916,1162.17,472.8916" style="stroke:#000000;stroke-width:1;"/></g><g class="entity" data-qualified-name="NotesPage" id="ent0008"><rect fill="#ECF0F1" height="50" rx="12.5" ry="12.5" style="stroke:#2C3E50;stroke-width:1;" width="160.6475" x="1328.85" y="761.5369"/><line style="stroke:#2C3E50;stroke-width:1;" x1="1328.85" x2="1489.4975" y1="784.3416" y2="784.3416"/><text fill="#2C3E50" font-family="'Times New Roman'" font-size="11" lengthAdjust="spacing" textLength="140.6475" x="1338.85" y="776.7473">&#1057;&#1090;&#1088;&#1072;&#1085;&#1080;&#1094;&#1072; '&#1052;&#1086;&#1080; &#1079;&#1072;&#1084;&#1077;&#1090;&#1082;&#1080;'</text></g><g class="entity" data-qualified-name="CalendarPage" id="ent0009"><rect fill="#ECF0F1" height="50" rx="12.5" ry="12.5" style="stroke:#2C3E50;stroke-width:1;" width="149.2769" x="1206.53" y="634.5369"/><line style="stroke:#2C3E50;stroke-width:1;" x1="1206.53" x2="1355.8069" y1="657.3416" y2="657.3416"/><text fill="#2C3E50" font-family="'Times New Roman'" font-size="11" lengthAdjust="spacing" textLength="129.2769" x="1216.53" y="649.7473">&#1057;&#1090;&#1088;&#1072;&#1085;&#1080;&#1094;&#1072; '&#1050;&#1072;&#1083;&#1077;&#1085;&#1076;&#1072;&#1088;&#1100;'</text></g><g class="entity" data-qualified-name="RemindersPage" id="ent0010"><rect fill="#ECF0F1" height="50" rx="12.5" ry="12.5" style="stroke:#2C3E50;stroke-width:1;" width="165.1968" x="1455.57" y="634.5369"/><line style="stroke:#2C3E50;stroke-width:1;" x1="1455.57" x2="1620.7668" y1="657.3416" y2="657.3416"/><text fill="#2C3E50" font-family="'Times New Roman'" font-size="11" lengthAdjust="spacing" textLength="145.1968" x="1465.57" y="649.7473">&#1057;&#1090;&#1088;&#1072;&#1085;&#1080;&#1094;&#1072; '&#1053;&#1072;&#1087;&#1086;&#1084;&#1080;&#1085;&#1072;&#1085;&#1080;&#1103;'</text></g><g class="entity" data-qualified-name="SettingsPage" id="ent0011"><rect fill="#ECF0F1" height="50" rx="12.5" ry="12.5" style="stroke:#2C3E50;stroke-width:1;" width="202.6494" x="1846.85" y="634.5369"/><line style="stroke:#2C3E50;stroke-width:1;" x1="1846.85" x2="2049.4994" y1="657.3416" y2="657.3416"/><text fill="#2C3E50" font-family="'Times New Roman'" font-size="11" lengthAdjust="spacing" textLength="182.6494" x="1856.85" y="649.7473">&#1057;&#1090;&#1088;&#1072;&#1085;&#1080;&#1094;&#1072; '&#1053;&#1072;&#1089;&#1090;&#1088;&#1086;&#1081;&#1082;&#1080; &#1087;&#1088;&#1086;&#1092;&#1080;&#1083;&#1103;'</text></g><g class="entity" data-qualified-name="TagsPage" id="ent0012"><rect fill="#F08080" height="50" rx="12.5" ry="12.5" style="stroke:#2C3E50;stroke-width:1;" width="112.3398" x="12" y="634.5369"/><line style="stroke:#2C3E50;stroke-width:1;" x1="12" x2="124.3398" y1="657.3416" y2="657.3416"/><text fill="#2C3E50" font-family="'Times New Roman'" font-size="11" lengthAdjust="spacing" textLength="92.3398" x="22" y="649.7473">&#1057;&#1090;&#1088;&#1072;&#1085;&#1080;&#1094;&#1072; '&#1058;&#1077;&#1075;&#1080;'</text></g><g class="entity" data-qualified-name="AdminPage" id="ent0013"><rect fill="#F08080" height="50" rx="12.5" ry="12.5" style="stroke:#2C3E50;stroke-width:1;" width="205.4746" x="462.43" y="634.5369"/><line style="stroke:#2C3E50;stroke-width:1;" x1="462.43" x2="667.9046" y1="657.3416" y2="657.3416"/><text fill="#2C3E50" font-family="'Times New Roman'" font-size="11" lengthAdjust="spacing" textLength="185.4746" x="472.43" y="649.7473">&#1057;&#1090;&#1088;&#1072;&#1085;&#1080;&#1094;&#1072; '&#1040;&#1076;&#1084;&#1080;&#1085;&#1080;&#1089;&#1090;&#1088;&#1080;&#1088;&#1086;&#1074;&#1072;&#1085;&#1080;&#1077;'</text></g><g class="start_entity" data-qualified-name=".start." data-source-line="23" id="ent0002"><ellipse cx="1446.17" cy="58.2969" fill="#FFFFFF" rx="10" ry="10" style="stroke:#000000;stroke-width:1;"/></g><g class="entity" data-qualified-name="GMN2" data-source-line="93" id="ent0003"><path d="M1595.99,205.7669 L1595.99,221.9069 L1561.17,225.9069 L1595.99,229.9069 L1595.99,246.0325 A0,0 0 0 0 1595.99,246.0325 L1808.3464,246.0325 A0,0 0 0 0 1808.3464,246.0325 L1808.3464,215.7669 L1798.3464,205.7669 L1595.99,205.7669 A0,0 0 0 0 1595.99,205.7669" fill="#FFFFFF" style="stroke:#000000;stroke-width:1;"/><path d="M1798.3464,205.7669 L1798.3464,215.7669 L1808.3464,215.7669 L1798.3464,205.7669" fill="#FFFFFF" style="stroke:#000000;stroke-width:1;"/><text fill="#000000" font-family="Verdana" font-size="13" lengthAdjust="spacing" textLength="191.3564" x="1601.99" y="222.8338">&#1055;&#1086; &#1091;&#1084;&#1086;&#1083;&#1095;&#1072;&#1085;&#1080;&#1102; &#1086;&#1090;&#1082;&#1088;&#1099;&#1074;&#1072;&#1077;&#1090;&#1089;&#1103;</text><text fill="#000000" font-family="Verdana" font-size="13" lengthAdjust="spacing" textLength="173.4751" x="1601.99" y="237.9666">&#1087;&#1088;&#1080; &#1079;&#1072;&#1087;&#1091;&#1089;&#1082;&#1077; &#1087;&#1088;&#1080;&#1083;&#1086;&#1078;&#1077;&#1085;&#1080;&#1103;</text></g><g class="entity" data-qualified-name="GMN5" data-source-line="94" id="ent0006"><path d="M1315.84,450.3969 L1315.84,466.5269 L1281.59,470.5269 L1315.84,474.5269 L1315.84,490.6625 A0,0 0 0 0 1315.84,490.6625 L1508.506,490.6625 A0,0 0 0 0 1508.506,490.6625 L1508.506,460.3969 L1498.506,450.3969 L1315.84,450.3969 A0,0 0 0 0 1315.84,450.3969" fill="#FFFFFF" style="stroke:#000000;stroke-width:1;"/><path d="M1498.506,450.3969 L1498.506,460.3969 L1508.506,460.3969 L1498.506,450.3969" fill="#FFFFFF" style="stroke:#000000;stroke-width:1;"/><text fill="#000000" font-family="Verdana" font-size="13" lengthAdjust="spacing" textLength="157.3203" x="1321.84" y="467.4638">&#1055;&#1086;&#1089;&#1083;&#1077; &#1074;&#1093;&#1086;&#1076;&#1072; &#1074; &#1089;&#1080;&#1089;&#1090;&#1077;&#1084;&#1091;</text><text fill="#000000" font-family="Verdana" font-size="13" lengthAdjust="spacing" textLength="171.666" x="1321.84" y="482.5966">&#1086;&#1090;&#1086;&#1073;&#1088;&#1072;&#1078;&#1072;&#1077;&#1090;&#1089;&#1103; NotesPage</text></g><g class="entity" data-qualified-name="GMN8" data-source-line="95" id="ent0009"><path d="M159.3,639.4069 L159.3,655.5369 L124.5,659.5369 L159.3,663.5369 L159.3,679.6725 A0,0 0 0 0 159.3,679.6725 L389.049,679.6725 A0,0 0 0 0 389.049,679.6725 L389.049,649.4069 L379.049,639.4069 L159.3,639.4069 A0,0 0 0 0 159.3,639.4069" fill="#FFFFFF" style="stroke:#000000;stroke-width:1;"/><path d="M379.049,639.4069 L379.049,649.4069 L389.049,649.4069 L379.049,639.4069" fill="#FFFFFF" style="stroke:#000000;stroke-width:1;"/><text fill="#000000" font-family="Verdana" font-size="13" lengthAdjust="spacing" textLength="116.9238" x="165.3" y="656.4738">&#1044;&#1086;&#1089;&#1090;&#1091;&#1087;&#1085;&#1072; &#1090;&#1086;&#1083;&#1100;&#1082;&#1086;</text><text fill="#000000" font-family="Verdana" font-size="13" lengthAdjust="spacing" textLength="208.749" x="165.3" y="671.6066">&#1087;&#1086;&#1083;&#1100;&#1079;&#1086;&#1074;&#1072;&#1090;&#1077;&#1083;&#1103;&#1084; &#1089; &#1088;&#1086;&#1083;&#1100;&#1102; Admin</text></g><g class="entity" data-qualified-name="GMN11" data-source-line="96" id="ent0012"><path d="M703.3,639.4069 L703.3,655.5369 L667.95,659.5369 L703.3,663.5369 L703.3,679.6725 A0,0 0 0 0 703.3,679.6725 L933.049,679.6725 A0,0 0 0 0 933.049,679.6725 L933.049,649.4069 L923.049,639.4069 L703.3,639.4069 A0,0 0 0 0 703.3,639.4069" fill="#FFFFFF" style="stroke:#000000;stroke-width:1;"/><path d="M923.049,639.4069 L923.049,649.4069 L933.049,649.4069 L923.049,639.4069" fill="#FFFFFF" style="stroke:#000000;stroke-width:1;"/><text fill="#000000" font-family="Verdana" font-size="13" lengthAdjust="spacing" textLength="116.9238" x="709.3" y="656.4738">&#1044;&#1086;&#1089;&#1090;&#1091;&#1087;&#1085;&#1072; &#1090;&#1086;&#1083;&#1100;&#1082;&#1086;</text><text fill="#000000" font-family="Verdana" font-size="13" lengthAdjust="spacing" textLength="208.749" x="709.3" y="671.6066">&#1087;&#1086;&#1083;&#1100;&#1079;&#1086;&#1074;&#1072;&#1090;&#1077;&#1083;&#1103;&#1084; &#1089; &#1088;&#1086;&#1083;&#1100;&#1102; Admin</text></g><!--link *start* to LoginScreen--><g class="link" data-entity-1="ent0002" data-entity-2="ent0002" data-link-type="dependency" data-source-line="23" id="lnk3"><path d="M1446.17,68.6769 C1446.17,83.7269 1446.17,108.6869 1446.17,139.1069" fill="none" id="*start*-to-LoginScreen" style="stroke:#000000;stroke-width:1;"/><polygon fill="#000000" points="1446.17,145.1069,1450.17,136.1069,1446.17,140.1069,1442.17,136.1069,1446.17,145.1069" style="stroke:#000000;stroke-width:1;"/><text fill="#000000" font-family="Verdana" font-size="13" lengthAdjust="spacing" textLength="137.5664" x="1447.17" y="111.3638">&#1047;&#1072;&#1087;&#1091;&#1089;&#1082; &#1087;&#1088;&#1080;&#1083;&#1086;&#1078;&#1077;&#1085;&#1080;&#1103;</text></g><!--link LoginScreen to RegisterScreen--><g class="link" data-entity-1="ent0002" data-entity-2="ent0004" data-link-type="dependency" data-source-line="56" id="lnk10"><path d="M1560.91,298.3769 C1577.08,310.3269 1593.01,323.1969 1607.17,336.5169 C1624.08,352.4269 1636.7113,366.5604 1651.2113,385.0004" fill="none" id="LoginScreen-to-RegisterScreen" style="stroke:#000000;stroke-width:1;"/><polygon fill="#000000" points="1654.92,389.7169,1652.5012,380.1696,1651.8294,385.7865,1646.2126,385.1146,1654.92,389.7169" style="stroke:#000000;stroke-width:1;"/><text fill="#000000" font-family="Verdana" font-size="13" lengthAdjust="spacing" textLength="87.1724" x="1625.17" y="349.5838">&#1056;&#1077;&#1075;&#1080;&#1089;&#1090;&#1088;&#1072;&#1094;&#1080;&#1103;</text></g><!--link RegisterScreen to LoginScreen--><g class="link" data-entity-1="ent0004" data-entity-2="ent0002" data-link-type="dependency" data-source-line="60" id="lnk12"><path d="M1735.08,389.4969 C1736.36,370.4469 1733.22,351.3569 1721.17,336.5169 C1680.24,286.0969 1638.6,330.2869 1578.17,306.5169 C1572.44,304.2569 1572.1255,304.286 1566.3755,301.626" fill="none" id="RegisterScreen-to-LoginScreen" style="stroke:#000000;stroke-width:1;"/><polygon fill="#000000" points="1560.93,299.1069,1567.4189,306.516,1565.4679,301.2062,1570.7777,299.2552,1560.93,299.1069" style="stroke:#000000;stroke-width:1;"/><text fill="#000000" font-family="Verdana" font-size="13" lengthAdjust="spacing" textLength="224.1865" x="1731.17" y="349.5838">&#1054;&#1090;&#1084;&#1077;&#1085;&#1072; / &#1059;&#1089;&#1087;&#1077;&#1096;&#1085;&#1072;&#1103; &#1088;&#1077;&#1075;&#1080;&#1089;&#1090;&#1088;&#1072;&#1094;&#1080;&#1103;</text></g><!--link LoginScreen to MainWindow--><g class="link" data-entity-1="ent0002" data-entity-2="ent0006" data-link-type="dependency" data-source-line="57" id="lnk11"><path d="M1331.55,247.4569 C1240.13,266.4569 1122.81,297.5969 1094.17,336.5169 C1083.52,350.9869 1081.6117,361.5508 1087.6917,377.4908" fill="none" id="LoginScreen-to-MainWindow" style="stroke:#000000;stroke-width:1;"/><polygon fill="#000000" points="1089.83,383.0969,1090.3599,373.2623,1088.0481,378.4252,1082.8852,376.1134,1089.83,383.0969" style="stroke:#000000;stroke-width:1;"/><text fill="#000000" font-family="Verdana" font-size="13" lengthAdjust="spacing" textLength="107.104" x="1095.17" y="349.5838">&#1059;&#1089;&#1087;&#1077;&#1096;&#1085;&#1099;&#1081; &#1074;&#1093;&#1086;&#1076;</text></g><!--link MainWindow to LoginScreen--><g class="link" data-entity-1="ent0006" data-entity-2="ent0002" data-link-type="dependency" data-source-line="71" id="lnk19"><path d="M1204.59,383.1269 C1214.21,366.3869 1225.73,349.9069 1239.17,336.5169 C1265.24,310.5369 1293.4057,291.9738 1325.8357,275.2738" fill="none" id="MainWindow-to-LoginScreen" style="stroke:#000000;stroke-width:1;"/><polygon fill="#000000" points="1331.17,272.5269,1321.3373,273.0911,1326.7248,274.816,1324.9999,280.2034,1331.17,272.5269" style="stroke:#000000;stroke-width:1;"/><text fill="#000000" font-family="Verdana" font-size="13" lengthAdjust="spacing" textLength="358.2173" x="1240.17" y="349.5838">&#1050;&#1085;&#1086;&#1087;&#1082;&#1072; "&#1042;&#1099;&#1093;&#1086;&#1076;" / &#1047;&#1072;&#1082;&#1088;&#1099;&#1090;&#1080;&#1077; &#1086;&#1082;&#1085;&#1072; &#1073;&#1077;&#1079; &#1103;&#1074;&#1085;&#1086;&#1075;&#1086; &#1074;&#1099;&#1093;&#1086;&#1076;&#1072;</text></g><!--link MainWindow to NotesPage--><g class="link" data-entity-1="ent0006" data-entity-2="ent0008" data-link-type="dependency" data-source-line="63" id="lnk13"><path d="M1067.51,557.7869 C1033.04,597.6969 1009.94,644.9169 1040.17,684.5369 C1074.97,730.1469 1224.897,759.2929 1322.587,774.0129" fill="none" id="MainWindow-to-NotesPage" style="stroke:#000000;stroke-width:1;"/><polygon fill="#000000" points="1328.52,774.9069,1320.2165,769.6105,1323.5758,774.1619,1319.0245,777.5212,1328.52,774.9069" style="stroke:#000000;stroke-width:1;"/><text fill="#000000" font-family="Verdana" font-size="13" lengthAdjust="spacing" textLength="147.8052" x="1041.17" y="664.1038">&#1042;&#1099;&#1073;&#1086;&#1088; "&#1052;&#1086;&#1080; &#1079;&#1072;&#1084;&#1077;&#1090;&#1082;&#1080;"</text></g><!--link NotesPage to MainWindow--><g class="link" data-entity-1="ent0008" data-entity-2="ent0006" data-link-type="dependency" data-source-line="74" id="lnk20"><path d="M1489.81,785.6869 C1617.39,783.2069 1871.38,767.1769 2067.17,684.5369 C2324.15,576.0669 2224.93,641.1069 2173.17,587.5369 C2139.37,552.5569 1344.5,572.3469 1298.17,557.5369 C1292.63,555.7669 1292.6216,556.0346 1287.1416,553.7046" fill="none" id="NotesPage-to-MainWindow" style="stroke:#000000;stroke-width:1;"/><polygon fill="#000000" points="1281.62,551.3569,1288.3373,558.5595,1286.2214,553.3133,1291.4676,551.1973,1281.62,551.3569" style="stroke:#000000;stroke-width:1;"/><text fill="#000000" font-family="Verdana" font-size="13" lengthAdjust="spacing" textLength="158.1201" x="2190.17" y="664.1038">&#1053;&#1072;&#1074;&#1080;&#1075;&#1072;&#1094;&#1080;&#1103; &#1095;&#1077;&#1088;&#1077;&#1079; &#1084;&#1077;&#1085;&#1102;</text></g><!--link MainWindow to RemindersPage--><g class="link" data-entity-1="ent0006" data-entity-2="ent0010" data-link-type="dependency" data-source-line="64" id="lnk14"><path d="M1281.81,549.6969 C1287.26,552.4969 1292.73,555.1269 1298.17,557.5369 C1347.65,579.4369 1366.08,567.0669 1416.17,587.5369 C1446.68,600.0069 1473.7635,615.7315 1497.3835,630.9215" fill="none" id="MainWindow-to-RemindersPage" style="stroke:#000000;stroke-width:1;"/><polygon fill="#000000" points="1502.43,634.1669,1497.0238,625.9344,1498.2246,631.4624,1492.6966,632.6631,1502.43,634.1669" style="stroke:#000000;stroke-width:1;"/><text fill="#000000" font-family="Verdana" font-size="13" lengthAdjust="spacing" textLength="153.1816" x="1452.17" y="600.6038">&#1042;&#1099;&#1073;&#1086;&#1088; "&#1053;&#1072;&#1087;&#1086;&#1084;&#1080;&#1085;&#1072;&#1085;&#1080;&#1103;"</text></g><!--link RemindersPage to MainWindow--><g class="link" data-entity-1="ent0010" data-entity-2="ent0006" data-link-type="dependency" data-source-line="75" id="lnk21"><path d="M1589.26,634.0769 C1610.39,620.7669 1626.9,603.7369 1612.17,587.5369 C1565.02,535.6669 1364.26,580.9069 1298.17,557.5369 C1292.68,555.5969 1292.6745,555.8324 1287.2345,553.3924" fill="none" id="RemindersPage-to-MainWindow" style="stroke:#000000;stroke-width:1;"/><polygon fill="#000000" points="1281.76,550.9369,1288.3348,558.2698,1286.3221,552.9831,1291.6088,550.9704,1281.76,550.9369" style="stroke:#000000;stroke-width:1;"/><text fill="#000000" font-family="Verdana" font-size="13" lengthAdjust="spacing" textLength="158.1201" x="1619.17" y="600.6038">&#1053;&#1072;&#1074;&#1080;&#1075;&#1072;&#1094;&#1080;&#1103; &#1095;&#1077;&#1088;&#1077;&#1079; &#1084;&#1077;&#1085;&#1102;</text></g><!--link MainWindow to CalendarPage--><g class="link" data-entity-1="ent0006" data-entity-2="ent0009" data-link-type="dependency" data-source-line="65" id="lnk15"><path d="M1073.75,558.0369 C1066.51,573.7369 1065.82,589.7969 1077.17,604.5369 C1081.33,609.9469 1143.927,625.9411 1200.397,639.5511" fill="none" id="MainWindow-to-CalendarPage" style="stroke:#000000;stroke-width:1;"/><polygon fill="#000000" points="1206.23,640.9569,1198.4177,634.9595,1201.3692,639.7854,1196.5433,642.7368,1206.23,640.9569" style="stroke:#000000;stroke-width:1;"/><text fill="#000000" font-family="Verdana" font-size="13" lengthAdjust="spacing" textLength="134.3672" x="1078.17" y="600.6038">&#1042;&#1099;&#1073;&#1086;&#1088; "&#1050;&#1072;&#1083;&#1077;&#1085;&#1076;&#1072;&#1088;&#1100;"</text></g><!--link CalendarPage to MainWindow--><g class="link" data-entity-1="ent0009" data-entity-2="ent0006" data-link-type="dependency" data-source-line="76" id="lnk22"><path d="M1266.49,634.2469 C1254.66,614.6569 1240.364,590.9916 1223.474,563.0516" fill="none" id="CalendarPage-to-MainWindow" style="stroke:#000000;stroke-width:1;"/><polygon fill="#000000" points="1220.37,557.9169,1221.6028,567.6883,1222.9567,562.1958,1228.4491,563.5496,1220.37,557.9169" style="stroke:#000000;stroke-width:1;"/><text fill="#000000" font-family="Verdana" font-size="13" lengthAdjust="spacing" textLength="158.1201" x="1249.17" y="600.6038">&#1053;&#1072;&#1074;&#1080;&#1075;&#1072;&#1094;&#1080;&#1103; &#1095;&#1077;&#1088;&#1077;&#1079; &#1084;&#1077;&#1085;&#1102;</text></g><!--link MainWindow to SettingsPage--><g class="link" data-entity-1="ent0006" data-entity-2="ent0011" data-link-type="dependency" data-source-line="66" id="lnk16"><path d="M1281.68,551.1669 C1287.14,553.5469 1292.65,555.6869 1298.17,557.5369 C1504.23,626.4969 1574.96,536.4669 1786.17,587.5369 C1827.81,597.6069 1866.8306,615.0499 1898.5906,631.3299" fill="none" id="MainWindow-to-SettingsPage" style="stroke:#000000;stroke-width:1;"/><polygon fill="#000000" points="1903.93,634.0669,1897.7455,626.4019,1899.4805,631.7861,1894.0963,633.5211,1903.93,634.0669" style="stroke:#000000;stroke-width:1;"/><text fill="#000000" font-family="Verdana" font-size="13" lengthAdjust="spacing" textLength="153.7847" x="1838.17" y="600.6038">&#1050;&#1085;&#1086;&#1087;&#1082;&#1072; "&#1053;&#1072;&#1089;&#1090;&#1088;&#1086;&#1081;&#1082;&#1080;" (&#9881;&#65039;)</text></g><!--link SettingsPage to MainWindow--><g class="link" data-entity-1="ent0011" data-entity-2="ent0006" data-link-type="dependency" data-source-line="77" id="lnk23"><path d="M1983.55,634.2869 C2000.29,619.9669 2013.91,601.8769 2000.17,587.5369 C1946.16,531.1669 1372.43,581.6169 1298.17,557.5369 C1292.64,555.7469 1292.6228,556.0153 1287.1528,553.6653" fill="none" id="SettingsPage-to-MainWindow" style="stroke:#000000;stroke-width:1;"/><polygon fill="#000000" points="1281.64,551.2969,1288.3303,558.5246,1286.234,553.2705,1291.4881,551.1743,1281.64,551.2969" style="stroke:#000000;stroke-width:1;"/><text fill="#000000" font-family="Verdana" font-size="13" lengthAdjust="spacing" textLength="158.1201" x="2006.17" y="600.6038">&#1053;&#1072;&#1074;&#1080;&#1075;&#1072;&#1094;&#1080;&#1103; &#1095;&#1077;&#1088;&#1077;&#1079; &#1084;&#1077;&#1085;&#1102;</text></g><!--link MainWindow to TagsPage--><g class="link" data-entity-1="ent0006" data-entity-2="ent0012" data-link-type="dependency" data-source-line="67" id="lnk17"><path d="M1054.88,474.8069 C783.35,483.8469 112.94,513.5069 46.17,587.5369 C34.59,600.3769 38.1084,614.0608 46.9984,629.1108" fill="none" id="MainWindow-to-TagsPage" style="stroke:#000000;stroke-width:1;"/><polygon fill="#000000" points="50.05,634.2769,48.9167,624.4934,47.507,629.9718,42.0286,628.5622,50.05,634.2769" style="stroke:#000000;stroke-width:1;"/><text fill="#000000" font-family="Verdana" font-size="13" lengthAdjust="spacing" textLength="198.085" x="47.17" y="600.6038">&#1042;&#1099;&#1073;&#1086;&#1088; "&#1058;&#1077;&#1075;&#1080;" (&#1090;&#1086;&#1083;&#1100;&#1082;&#1086; Admin)</text></g><!--link TagsPage to MainWindow--><g class="link" data-entity-1="ent0012" data-entity-2="ent0006" data-link-type="dependency" data-source-line="78" id="lnk24"><path d="M124.65,639.9269 C130.55,638.0669 136.48,636.2369 142.17,634.5369 C146.89,633.1269 308.34,588.5269 313.17,587.5369 C576.25,533.7869 884.1295,499.0209 1048.6695,482.6509" fill="none" id="TagsPage-to-MainWindow" style="stroke:#000000;stroke-width:1;"/><polygon fill="#000000" points="1054.64,482.0569,1045.2882,478.9675,1049.6646,482.5519,1046.0802,486.9282,1054.64,482.0569" style="stroke:#000000;stroke-width:1;"/><text fill="#000000" font-family="Verdana" font-size="13" lengthAdjust="spacing" textLength="158.1201" x="314.17" y="600.6038">&#1053;&#1072;&#1074;&#1080;&#1075;&#1072;&#1094;&#1080;&#1103; &#1095;&#1077;&#1088;&#1077;&#1079; &#1084;&#1077;&#1085;&#1102;</text></g><!--link MainWindow to AdminPage--><g class="link" data-entity-1="ent0006" data-entity-2="ent0013" data-link-type="dependency" data-source-line="68" id="lnk18"><path d="M1054.66,473.8169 C879.9,480.0169 557.6,502.9369 486.17,587.5369 C471.84,604.5169 483.3509,618.1569 505.0009,631.1069" fill="none" id="MainWindow-to-AdminPage" style="stroke:#000000;stroke-width:1;"/><polygon fill="#000000" points="510.15,634.1869,504.4796,626.1341,505.859,631.6202,500.373,632.9997,510.15,634.1869" style="stroke:#000000;stroke-width:1;"/><text fill="#000000" font-family="Verdana" font-size="13" lengthAdjust="spacing" textLength="308.1533" x="487.17" y="600.6038">&#1042;&#1099;&#1073;&#1086;&#1088; "&#1040;&#1076;&#1084;&#1080;&#1085;&#1080;&#1089;&#1090;&#1088;&#1080;&#1088;&#1086;&#1074;&#1072;&#1085;&#1080;&#1077;" (&#1090;&#1086;&#1083;&#1100;&#1082;&#1086; Admin)</text></g><!--link AdminPage to MainWindow--><g class="link" data-entity-1="ent0013" data-entity-2="ent0006" data-link-type="dependency" data-source-line="79" id="lnk25"><path d="M668.31,637.1169 C719.52,626.0169 775.6,613.0469 800.17,604.5369 C816.89,598.7469 819.8,594.2469 836.17,587.5369 C907.93,558.1469 984.5073,531.2624 1049.1973,509.7224" fill="none" id="AdminPage-to-MainWindow" style="stroke:#000000;stroke-width:1;"/><polygon fill="#000000" points="1054.89,507.8269,1045.0872,506.875,1050.1461,509.4065,1047.6146,514.4653,1054.89,507.8269" style="stroke:#000000;stroke-width:1;"/><text fill="#000000" font-family="Verdana" font-size="13" lengthAdjust="spacing" textLength="158.1201" x="837.17" y="600.6038">&#1053;&#1072;&#1074;&#1080;&#1075;&#1072;&#1094;&#1080;&#1103; &#1095;&#1077;&#1088;&#1077;&#1079; &#1084;&#1077;&#1085;&#1102;</text></g><!--link CalendarPage to NotesPage--><g class="link" data-entity-1="ent0009" data-entity-2="ent0008" data-link-type="dependency" data-source-line="82" id="lnk26"><path d="M1273.36,684.8469 C1270.19,699.5469 1269.11,718.0069 1278.17,731.5369 C1290.01,749.2169 1303.2409,758.8594 1322.9409,766.8594" fill="none" id="CalendarPage-to-NotesPage" style="stroke:#000000;stroke-width:1;"/><polygon fill="#000000" points="1328.5,769.1169,1321.6663,762.0245,1323.8674,767.2356,1318.6563,769.4367,1328.5,769.1169" style="stroke:#000000;stroke-width:1;"/><text fill="#000000" font-family="Verdana" font-size="13" lengthAdjust="spacing" textLength="215.9663" x="1279.17" y="727.6038">&#1044;&#1074;&#1086;&#1081;&#1085;&#1086;&#1081; &#1082;&#1083;&#1080;&#1082; &#1087;&#1086; &#1085;&#1072;&#1087;&#1086;&#1084;&#1080;&#1085;&#1072;&#1085;&#1080;&#1102;</text></g><!--link RemindersPage to NotesPage--><g class="link" data-entity-1="ent0010" data-entity-2="ent0008" data-link-type="dependency" data-source-line="85" id="lnk27"><path d="M1528.65,684.9569 C1522.01,699.7069 1512.04,718.1669 1499.17,731.5369 C1488.05,743.0869 1479.1011,750.017 1465.3711,758.157" fill="none" id="RemindersPage-to-NotesPage" style="stroke:#000000;stroke-width:1;"/><polygon fill="#000000" points="1460.21,761.2169,1469.9916,760.0679,1464.5109,758.667,1465.9118,753.1863,1460.21,761.2169" style="stroke:#000000;stroke-width:1;"/><text fill="#000000" font-family="Verdana" font-size="13" lengthAdjust="spacing" textLength="167.21" x="1513.17" y="727.6038">&#1044;&#1074;&#1086;&#1081;&#1085;&#1086;&#1081; &#1082;&#1083;&#1080;&#1082; &#1087;&#1086; &#1089;&#1090;&#1088;&#1086;&#1082;&#1077;</text></g><!--link NotesPage to NotesPage--><g class="link" data-entity-1="ent0008" data-entity-2="ent0008" data-link-type="dependency" data-source-line="88" id="lnk28"><path d="M1489.74,774.8069 C1509.65,775.6469 1524.49,779.5569 1524.49,786.5369 C1524.49,793.5169 1515.6447,797.174 1495.7347,798.014" fill="none" id="NotesPage-to-NotesPage" style="stroke:#000000;stroke-width:1;"/><polygon fill="#000000" points="1489.74,798.2669,1498.9006,801.8839,1494.7356,798.0561,1498.5634,793.8911,1489.74,798.2669" style="stroke:#000000;stroke-width:1;"/><text fill="#000000" font-family="Verdana" font-size="13" lengthAdjust="spacing" textLength="251.1577" x="1530.49" y="791.1038">&#1042;&#1099;&#1073;&#1086;&#1088; &#1079;&#1072;&#1084;&#1077;&#1090;&#1082;&#1080; &#1076;&#1083;&#1103; &#1088;&#1077;&#1076;&#1072;&#1082;&#1090;&#1080;&#1088;&#1086;&#1074;&#1072;&#1085;&#1080;&#1103;</text></g><?plantuml-src hLVTRXj55BxVfnZSYoIe4Gq_DvL0WgY-eOrGKeaBu69R3wvLUpTQBwe0LMgSfaLgO569L4XfGW5nWv1S9suT9tQaFi7iA_02l0BVERD_ixjE6okHxAndzdpdPxxppSmR_WtPacArQJSSgtspuQpQdjqIr-phD-kU-vLJMtIRhYVELValyuRVy9kowZh-IkCRAHRUBPtolsvASSrjrYoB1uLw6cwelZfINQ56ggjwQg3sL3UyX_y3WQzHU5UDmplq1W-EyTe8tmSYN5E3S2tia7duGBpy-qh3gNqivQhqNXvQrenu_nH_U5tjg6CuwgjzV0xn6S5TNx2B0GySd1OqBK7RjtqflhM4-2XVoKkBrGlL1PfnlPhqej6t5z-vzDu5Z5BToiQMR2nJvMgZ9TjYITuIosxBTYhHf5w31UlsMTO1wq2r68S13ns8sV1xDSIhNLwHtjnfVLcVlVc5c9__G5nswmrdvRedfICk2lK8YCVXEZmE1ST2vH-hvpgMCB0iNSwicTqM5VLF78uWAd6iPFmY9bI5Ly3mMdMz5iQIP_YV5seNxWx30B4ynjCUyV0yZNQ1HpERHPDjBiAn6ge1p1uIHOauCFiDSUzfhb9q50fok1rdiIphZROllV94U2Lorlb4OeGeb-pFrqpdl7vd7n7tL1-ZptdrUUKnzwVwMUsK8fjPFsB4RBm3zj33U2VSn5W0j1ruEMBqRbg5Az2RJz70xYrTWP-mv2G71DyN-1hIevatsLJHNH9ZoREEwo5b0MaPXK4OW4JCqJwb2jPkQ7A7T-QAXeynrzC-yteKIm-cEFpmXwBvNpp1AqNEyFo0fEekb-L07QK9Bxc-R7zYrwNEzsbaH0I_1pMSKR_25IGGv2Ltg1bgF5E9h1VjfdHgjdSIm3R5m7NUftK9DnFhPTb2gQLtelydr8M8uOZe4iq42SIAzFs6KtyLGaG3D0E5hxjv34aV41yJiAlsoK2_QqxDLCIvoutw3UYXPpSZsmzhoEKaun-HliwXG4fDy1picIacgaUjr0VVq5hayTG2EKDzcG71FXUkYOpiTYSedPNLngn6f2fRBajvkqnVmkOFQ39bzLr4RBZck2nTXMSCr8adZVmvy58nitAnbUm86SaGRnbX02GenQLj0a4zCPkOn01b4lYTwikU6iSAqxKo2LCWQPkIgYElPrHg4AsiFIjvQxFHSWYb3LQ0C3ezXr3ey8ArqQONithTrH6O3LeHi_zk__BV89ZB0oKjcWiXQaqO4WbPyuOe9tTb0IJjrHpAAtjq0ZwjC70YXl7AciV2V0GvNfdbI90gH38wXQ3DCDRHxHmnH23gFZaAilJfnRQWKA5j8yxj0ssTUReXOgfgeIBmf7aOpcHekWEY3dGGsz2sY07KetrLK5bewq5iGmAVirBg5Xkvs1RXVHqn1HflRoPzfqKn63mjY47aQK4I4ayBa19uMeH9t1ZcMfaMr5INVh6GXZXjyRdb8BeTmU0Go7I09ZwDIhHcOZ0cDx7db9cpZto4HSAyTeY9417Ef2fH30Ew5w0DPxaPpLYfKTA8W3L7GKPxCxLpnnGMrC3iaWboRyeyEfcEBoVX1jCS8xP81PX5nY425owaF8g6TDdDemLYEwqx1uaAZquzmlqoBukxj1xhI9W4ztvSAcWGvK-Io7b6olEve-zekaZHlOqZBxcvcMxD1jgb2oQbdXmhI6nxfgAlmzsOrvRr4j198EdYvTnazwujVOj5TiUQFvbTXJA9Vhs8RoryQGZKKNHyuLcKWeKWvyROtSxIp_y0?></g></svg>